# xmcd CD database file
#
# Track frame offsets:
#	150
#	12698
#	26426
#	37593
#	51046
#	63048
#	75805
#	90477
#
# Disc length: 1364 seconds
#
# Revision: 0
# Processed by: cddbd v1.5.2PL0 Copyright (c) Steve Scherf et al.
# Submitted via: CDex 1.70beta3
#
DISCID=47055208
DTITLE=Ruby Braff - Ruby Braff Swings
DYEAR=1954
DGENRE=Jazz
TTITLE0=Struttin' With Some Barbecue
TTITLE1=Mean To Me
TTITLE2=Ellie
TTITLE3=You're A Sweetheart
TTITLE4=Blue And Sentimental
TTITLE5=Blue Room
TTITLE6=I Can't Get Started
TTITLE7=This Can't Be Love
EXTD=YEAR: 1954
EXTT0=
EXTT1=
EXTT2=
EXTT3=
EXTT4=
EXTT5=
EXTT6=
EXTT7=
PLAYORDER=
